<?xml version="1.0" encoding="UTF-8"?>
<svg preserveAspectRatio="xMidYMid slice" xmlns="http://www.w3.org/2000/svg" width="56px" height="60px" viewBox="0 0 18 19" fill="none">
  <path d="M12.7993 0C14.2899 0 15.5894 1.01393 15.9518 2.45974L16.337 4H17.25C17.6297 4 17.9435 4.28215 17.9932 4.64823L18 4.75C18 5.1297 17.7178 5.44349 17.3518 5.49315L17.25 5.5H16.714L16.922 6.3265C17.5708 6.72128 18.0041 7.43504 18.0041 8.25V16.7468C18.0041 17.7133 17.2206 18.4968 16.2541 18.4968H14.75C13.7835 18.4968 13 17.7133 13 16.7468L12.999 15.5H5.004L5.00408 16.7468C5.00408 17.7133 4.22058 18.4968 3.25408 18.4968H1.75C0.783502 18.4968 0 17.7133 0 16.7468V8.25C0 7.43515 0.433157 6.72148 1.08177 6.32666L1.289 5.5H0.75C0.370304 5.5 0.0565091 5.21785 0.00684667 4.85177L0 4.75C0 4.3703 0.282154 4.05651 0.648229 4.00685L0.75 4H1.663L2.04898 2.46176C2.41068 1.01497 3.71062 0 5.20194 0H12.7993ZM3.504 15.5H1.499L1.5 16.7468C1.5 16.8848 1.61193 16.9968 1.75 16.9968H3.25408C3.39215 16.9968 3.50408 16.8848 3.50408 16.7468L3.504 15.5ZM16.504 15.5H14.499L14.5 16.7468C14.5 16.8848 14.6119 16.9968 14.75 16.9968H16.2541C16.3922 16.9968 16.5041 16.8848 16.5041 16.7468L16.504 15.5ZM15.7541 7.5H2.25C1.83579 7.5 1.5 7.83579 1.5 8.25V14H16.5041V8.25C16.5041 7.83579 16.1683 7.5 15.7541 7.5ZM7.24899 11H10.7507C11.165 11 11.5007 11.3358 11.5007 11.75C11.5007 12.1297 11.2186 12.4435 10.8525 12.4932L10.7507 12.5H7.24899C6.83478 12.5 6.49899 12.1642 6.49899 11.75C6.49899 11.3703 6.78115 11.0565 7.14722 11.0068L7.24899 11H10.7507H7.24899ZM14 9C14.5522 9 14.9999 9.4477 14.9999 9.99997C14.9999 10.5522 14.5522 10.9999 14 10.9999C13.4477 10.9999 13 10.5522 13 9.99997C13 9.4477 13.4477 9 14 9ZM3.99997 9C4.55225 9 4.99995 9.4477 4.99995 9.99997C4.99995 10.5522 4.55225 10.9999 3.99997 10.9999C3.4477 10.9999 3 10.5522 3 9.99997C3 9.4477 3.4477 9 3.99997 9ZM12.7993 1.5H5.20194C4.39892 1.5 3.69895 2.04652 3.50419 2.82556L2.71058 6H15.2929L14.4968 2.82448C14.3017 2.04596 13.6019 1.5 12.7993 1.5Z" fill="#238BC4"></path>
</svg>
