<svg width="133" height="40" viewBox="0 0 133 40" fill="none" xmlns="http://www.w3.org/2000/svg">
<g clip-path="url(#clip0_55_9944)">
<path d="M128.667 6.59038L132.115 3.09197C130.204 1.14911 127.791 0.387207 124.591 0.387207C119.512 0.387207 116.439 3.40943 116.439 7.54911C116.439 9.49197 116.94 11.0158 117.975 12.1015C119.202 13.2537 120.781 13.9602 122.458 14.1078L125.156 14.4888C125.7 14.5208 126.219 14.733 126.629 15.092C126.941 15.4661 127.098 15.9455 127.067 16.4317C127.067 17.7332 126.032 18.4697 123.893 18.4697C122.108 18.4697 120.083 18.057 118.908 16.8761L115.397 20.438C117.651 22.7936 120.445 23.4285 123.861 23.4285C128.566 23.4285 132.483 20.8888 132.483 16.2983C132.483 14.1967 132.013 12.4888 130.819 11.3332C129.88 10.3809 128.439 9.73959 126.432 9.42848L123.734 9.04752C123.165 9.01426 122.624 8.79064 122.197 8.4126C121.92 8.13401 121.763 7.758 121.759 7.36498C121.759 6.38086 122.54 5.2634 124.458 5.2634C125.435 5.2634 127.283 5.16181 128.693 6.59673M113.988 15.2761V0.577683H108.502V15.1809C108.502 17.2824 107.308 18.4888 105.493 18.4888C103.677 18.4888 102.546 17.2824 102.546 15.1809V0.577683H97.0608V15.2761C97.0608 20.2412 100.87 23.4221 105.493 23.4221C110.115 23.4221 113.988 20.2475 113.988 15.2761ZM94.7941 7.86022C94.7941 4.13959 92.1274 0.571334 87.175 0.571334H78.337V23.2443H83.81V15.1491H87.1623C92.1147 15.1491 94.7814 11.5872 94.7814 7.86022M89.2957 7.86022C89.2986 8.16962 89.2384 8.47637 89.1186 8.76166C88.9988 9.04695 88.8221 9.30479 88.5992 9.51938C88.3763 9.73397 88.1119 9.90079 87.8222 10.0096C87.5326 10.1184 87.2238 10.167 86.9147 10.1523H83.81V5.56816H86.9147C87.2236 5.55437 87.532 5.60356 87.8212 5.71272C88.1104 5.82188 88.3745 5.98874 88.5972 6.20314C88.8199 6.41754 88.9967 6.67501 89.1167 6.95989C89.2368 7.24476 89.2977 7.55108 89.2957 7.86022ZM74.4576 20.5904V0.577683H69.0671L64.0512 10.5459L59.0481 0.577683H53.6449V20.4634L61.937 13.5428L66.775 16.965L67.937 15.9809L74.4576 20.5904ZM44.8957 14.0063L51.6322 0.577683H45.6449L42.1655 8.72371L38.6544 0.577683H32.6671L39.4036 14.0063V23.2443H44.8893V14.0063H44.8957ZM34.9909 18.2666H25.6195V0.577683H20.1338V23.2443H34.9909V18.2666ZM16.9909 11.9174C16.9909 8.51419 17.0862 5.33324 14.7369 2.94594C13.94 2.10105 12.9709 1.4371 11.8953 0.998958C10.8197 0.560816 9.66251 0.358694 8.50203 0.406255C7.34198 0.355767 6.18459 0.554643 5.10793 0.989468C4.03128 1.42429 3.06039 2.08495 2.26076 2.92689C-0.0884491 5.32054 0.000439945 8.50149 0.000439945 11.9047C0.000439945 15.3078 -0.0884491 18.4888 2.26076 20.8761C3.05868 21.7215 4.0288 22.3857 5.10555 22.8238C6.18229 23.262 7.34055 23.4638 8.50203 23.4158C9.66255 23.4638 10.8198 23.2618 11.8955 22.8237C12.9712 22.3855 13.9402 21.7213 14.7369 20.8761C17.0798 18.4888 16.9909 15.3078 16.9909 11.9047M11.5052 11.9047C11.5052 16.038 11.1941 16.7745 10.6925 17.4412C10.4278 17.7665 10.0923 18.0272 9.7116 18.2032C9.33089 18.3793 8.91502 18.4661 8.49568 18.457C8.07641 18.4656 7.66069 18.3786 7.28006 18.2026C6.89943 18.0266 6.56388 17.7662 6.29885 17.4412C5.79727 16.7745 5.48616 16.038 5.48616 11.9047C5.48616 7.77133 5.79727 7.00308 6.29885 6.33641C6.56578 6.01576 6.90249 5.76039 7.28324 5.58982C7.664 5.41925 8.07871 5.338 8.49568 5.35229C8.91252 5.33895 9.32692 5.42063 9.70753 5.59113C10.0881 5.76163 10.425 6.01649 10.6925 6.33641C11.1877 7.00308 11.5052 7.76498 11.5052 11.9047Z" fill="#009CDE"/>
<path d="M63.8863 28.7174L59.8545 37.7523H58.845L54.7371 28.7174V39.6126H53.7275V26.4189H54.7371L59.3656 36.5777L63.8863 26.4189H64.8958V39.6126H63.8863V28.7174Z" fill="#009CDE"/>
<path d="M76.4516 38.3681C75.5634 39.2345 74.3718 39.7195 73.131 39.7195C71.8902 39.7195 70.6986 39.2345 69.8104 38.3681C68.5723 37.1618 68.5723 35.9745 68.5723 33.003C68.5723 30.0316 68.5723 28.8443 69.804 27.638C70.6922 26.7716 71.8839 26.2866 73.1246 26.2866C74.3654 26.2866 75.5571 26.7716 76.4453 27.638C77.658 28.8443 77.677 30.0126 77.677 33.003C77.677 35.9935 77.6643 37.1618 76.4516 38.3681ZM75.6516 28.2094C74.9763 27.5539 74.0722 27.1872 73.131 27.1872C72.1898 27.1872 71.2857 27.5539 70.6104 28.2094C69.658 29.1554 69.5818 30.1967 69.5818 33.0157C69.5818 35.8348 69.658 36.8761 70.6104 37.8221C71.2857 38.4776 72.1898 38.8442 73.131 38.8442C74.0722 38.8442 74.9763 38.4776 75.6516 37.8221C76.604 36.8761 76.6802 35.8348 76.6802 33.0157C76.6802 30.1967 76.604 29.1427 75.6516 28.1967V28.2094Z" fill="#009CDE"/>
<path d="M86.4006 39.6126H81.3594V26.4189H86.2483C88.4514 26.4189 90.0959 27.6888 90.0959 29.8729C90.118 30.5253 89.9284 31.1673 89.5553 31.703C89.1822 32.2386 88.6457 32.639 88.026 32.8443C88.701 33.0511 89.2896 33.4737 89.7013 34.0471C90.113 34.6206 90.3253 35.3133 90.3054 36.0189C90.3054 38.3682 88.7372 39.6126 86.4006 39.6126ZM86.1403 27.2888H82.3689V32.4126H86.1403C87.7467 32.4126 89.0927 31.6697 89.0927 29.8729C89.0927 28.0761 87.7467 27.2888 86.1403 27.2888ZM86.2927 33.3015H82.3753V38.7237H86.2927C88.1022 38.7237 89.2959 37.7205 89.2959 36.0126C89.2959 34.3047 88.1022 33.3015 86.2927 33.3015Z" fill="#009CDE"/>
<path d="M93.9688 26.4189H94.9783V39.6126H93.9688V26.4189Z" fill="#009CDE"/>
<path d="M99.1875 26.4189H100.197V38.7237H107.251V39.6126H99.1875V26.4189Z" fill="#009CDE"/>
<path d="M109.962 26.4189H110.971V39.6126H109.962V26.4189Z" fill="#009CDE"/>
<path d="M118.642 39.6126H117.632V27.2888H113.651V26.4189H122.591V27.3078H118.616V39.6126H118.642Z" fill="#009CDE"/>
<path d="M128.388 39.6126H127.378V34.1396L123.461 26.4189H124.547L127.924 33.0983L131.226 26.4189H132.312L128.394 34.1586V39.6316L128.388 39.6126Z" fill="#009CDE"/>
</g>
<defs>
<clipPath id="clip0_55_9944">
<rect width="132.698" height="40" fill="white"/>
</clipPath>
</defs>
</svg>
