<?xml version="1.0" encoding="UTF-8"?>
<svg xmlns="http://www.w3.org/2000/svg" width="20" height="19" viewBox="0 0 20 19" fill="none">
  <path d="M4.75 19C4.33579 19 4 18.6642 4 18.25C4 17.8703 4.28215 17.5565 4.64823 17.5068L4.75 17.5L6.499 17.4995V15.0015L2.25 15.0018C1.05914 15.0018 0.0843551 14.0766 0.00519085 12.9058L0 12.7518V2.24951C0 1.05865 0.925161 0.0838668 2.09595 0.00470257L2.25 -0.000488281H17.7488C18.9397 -0.000488281 19.9145 0.924673 19.9936 2.09546L19.9988 2.24951V12.7518C19.9988 13.9427 19.0737 14.9174 17.9029 14.9966L17.7488 15.0018L13.499 15.0015V17.4995L15.25 17.5C15.6642 17.5 16 17.8357 16 18.25C16 18.6296 15.7178 18.9434 15.3518 18.9931L15.25 19H4.75ZM11.998 15.0015H7.998L7.999 17.5H11.999L11.998 15.0015ZM17.7488 1.49951H2.25C1.8703 1.49951 1.55651 1.78167 1.50685 2.14774L1.5 2.24951V12.7518C1.5 13.1315 1.78215 13.4453 2.14823 13.4949L2.25 13.5018H17.7488C18.1285 13.5018 18.4423 13.2196 18.492 12.8536L18.4988 12.7518V2.24951C18.4988 1.86982 18.2167 1.55602 17.8506 1.50636L17.7488 1.49951Z" fill="#5D6A77"></path>
</svg>
